<?xml version="1.0" encoding="UTF-8"?>
<svg id="Layer_3" data-name="Layer 3" xmlns="http://www.w3.org/2000/svg" viewBox="0 0 217.71 221.76">
  <defs>
    <style>
      .cls-1 {
        fill: #2f4f37;
      }
    </style>
  </defs>
  <g id="Layer_1" data-name="Layer 1">
    <g>
      <g>
        <rect class="cls-1" x="-.57" y="79.12" width="6.28" height="1" transform="translate(-55.55 25.14) rotate(-45)"/>
        <rect class="cls-1" x="-2.32" y="83.36" width="18.27" height="1" transform="translate(-57.3 29.38) rotate(-45)"/>
        <rect class="cls-1" x="-2.98" y="90.25" width="22.77" height="1" transform="translate(-61.71 32.52) rotate(-45)"/>
        <rect class="cls-1" x="-2.98" y="98.74" width="22.77" height="1" transform="translate(-67.71 35.01) rotate(-45)"/>
        <rect class="cls-1" x="24.69" y="79.2" width="6.51" height="1" transform="translate(-48.17 43.1) rotate(-45)"/>
        <rect class="cls-1" x="-2.98" y="107.23" width="22.77" height="1" transform="translate(-73.72 37.5) rotate(-45)"/>
        <rect class="cls-1" x="22.93" y="83.45" width="18.51" height="1" transform="translate(-49.93 47.35) rotate(-45)"/>
        <rect class="cls-1" x="-2.98" y="115.71" width="22.77" height="1" transform="translate(-79.71 39.98) rotate(-45)"/>
        <rect class="cls-1" x="22.31" y="90.42" width="22.77" height="1" transform="translate(-54.42 50.46) rotate(-45)"/>
        <rect class="cls-1" x="-2.98" y="124.19" width="22.77" height="1" transform="translate(-85.71 42.46) rotate(-45)"/>
        <rect class="cls-1" x="22.31" y="98.9" width="22.77" height="1" transform="translate(-60.42 52.94) rotate(-45)"/>
        <rect class="cls-1" x="-2.98" y="132.68" width="22.77" height="1" transform="translate(-91.71 44.95) rotate(-45)"/>
        <rect class="cls-1" x="22.31" y="107.39" width="22.77" height="1" transform="translate(-66.42 55.43) rotate(-45)"/>
        <rect class="cls-1" x="-2.98" y="141.16" width="22.77" height="1" transform="translate(-97.71 47.43) rotate(-45)"/>
        <rect class="cls-1" x="22.31" y="115.87" width="22.77" height="1" transform="translate(-72.42 57.91) rotate(-45)"/>
        <rect class="cls-1" x="-2.98" y="149.65" width="22.77" height="1" transform="translate(-103.71 49.92) rotate(-45)"/>
        <rect class="cls-1" x="22.31" y="124.36" width="22.77" height="1" transform="translate(-78.42 60.4) rotate(-45)"/>
        <rect class="cls-1" x="-2.98" y="158.13" width="22.77" height="1" transform="translate(-109.71 52.4) rotate(-45)"/>
        <rect class="cls-1" x="22.31" y="132.84" width="22.77" height="1" transform="translate(-84.42 62.88) rotate(-45)"/>
        <rect class="cls-1" x="-2.98" y="166.61" width="22.77" height="1" transform="translate(-115.7 54.89) rotate(-45)"/>
        <rect class="cls-1" x="22.31" y="141.32" width="22.77" height="1" transform="translate(-90.41 65.36) rotate(-45)"/>
        <rect class="cls-1" x="-2.98" y="175.1" width="22.77" height="1" transform="translate(-121.71 57.37) rotate(-45)"/>
        <rect class="cls-1" x="22.31" y="149.81" width="22.77" height="1" transform="translate(-96.42 67.85) rotate(-45)"/>
        <rect class="cls-1" x="-2.98" y="183.59" width="22.77" height="1" transform="translate(-127.71 59.86) rotate(-45)"/>
        <rect class="cls-1" x="22.31" y="158.3" width="22.77" height="1" transform="translate(-102.42 70.34) rotate(-45)"/>
        <rect class="cls-1" x="-2.98" y="192.07" width="22.77" height="1" transform="translate(-133.71 62.34) rotate(-45)"/>
        <rect class="cls-1" x="22.31" y="166.78" width="22.77" height="1" transform="translate(-108.42 72.82) rotate(-45)"/>
        <rect class="cls-1" x="-2.98" y="200.55" width="22.77" height="1" transform="translate(-139.7 64.83) rotate(-45)"/>
        <rect class="cls-1" x="22.31" y="175.26" width="22.77" height="1" transform="translate(-114.41 75.3) rotate(-45)"/>
        <rect class="cls-1" x="-2.98" y="209.04" width="22.77" height="1" transform="translate(-145.71 67.32) rotate(-45)"/>
        <rect class="cls-1" x="22.31" y="183.75" width="22.77" height="1" transform="translate(-120.42 77.79) rotate(-45)"/>
        <rect class="cls-1" x="1.69" y="212.86" width="22.75" height="1" transform="translate(-147.04 71.73) rotate(-45)"/>
        <rect class="cls-1" x="22.31" y="192.23" width="22.77" height="1" transform="translate(-126.41 80.27) rotate(-45)"/>
        <rect class="cls-1" x="7.67" y="206.79" width="39.92" height="1" transform="translate(-138.48 80.25) rotate(-45)"/>
        <rect class="cls-1" x="17.9" y="211.03" width="27.93" height="1" transform="translate(-140.24 84.49) rotate(-45)"/>
        <rect class="cls-1" x="27.14" y="212.86" width="22.75" height="1" transform="translate(-139.58 89.73) rotate(-45)"/>
        <rect class="cls-1" x="35.63" y="212.86" width="22.75" height="1" transform="translate(-137.1 95.73) rotate(-45)"/>
        <rect class="cls-1" x="44.12" y="212.86" width="22.76" height="1" transform="translate(-134.61 101.73) rotate(-45)"/>
        <rect class="cls-1" x="53.63" y="215.35" width="15.7" height="1" transform="translate(-134.62 106.7) rotate(-45)"/>
        <rect class="cls-1" x="63.87" y="219.59" width="3.71" height="1" transform="translate(-136.38 110.94) rotate(-45)"/>
      </g>
      <g>
        <rect class="cls-1" x="51.03" y="77.33" width="16.09" height="66.67"/>
        <polygon class="cls-1" points="75.7 77.33 75.7 144.01 142.37 144.01 142.37 127.91 91.88 127.91 91.88 118.72 142.37 118.72 142.37 102.62 91.88 102.62 91.88 93.43 142.37 93.43 142.37 77.33 75.7 77.33"/>
        <g>
          <polygon class="cls-1" points="201.62 116.07 167.13 87.58 167.13 77.33 151.04 77.33 151.04 144.01 167.13 144.01 167.13 106.51 201.62 135 201.62 144.01 217.71 144.01 217.71 77.33 201.62 77.33 201.62 116.07"/>
          <polygon class="cls-1" points="172.83 135.52 171.83 135.52 171.83 144.07 180.38 144.07 180.38 143.07 172.83 143.07 172.83 135.52"/>
        </g>
      </g>
      <g>
        <rect class="cls-1" x="126.37" y="154.73" width="16.09" height="66.67"/>
        <polygon class="cls-1" points="217.71 170.82 217.71 154.73 151.04 154.73 151.04 201.18 201.61 193.4 201.61 205.31 151.04 205.31 151.04 221.4 217.71 221.4 217.71 177.3 201.61 177.3 167.13 182.61 167.13 170.82 217.71 170.82"/>
        <g>
          <polygon class="cls-1" points="51.12 170.82 76.41 170.82 76.41 221.4 92.5 221.4 92.5 170.82 117.79 170.82 117.79 154.73 51.12 154.73 51.12 170.82"/>
          <polygon class="cls-1" points="63.6 176.09 71.15 176.09 71.15 183.64 72.15 183.64 72.15 175.09 63.6 175.09 63.6 176.09"/>
        </g>
      </g>
      <g>
        <path class="cls-1" d="M217.71,0h-66.67v66.67h16.09v-19.98l34.49-5.3v25.29h16.09v-33.34h-8.05l8.05-8.05V0ZM201.61,25.29l-34.49,5.3v-14.5h34.49v9.2Z"/>
        <g>
          <polygon class="cls-1" points=".35 0 67.03 0 67.03 16.09 16.45 16.09 16.45 25.29 67.03 25.29 67.03 41.38 16.45 41.38 16.45 66.67 .35 66.67 .35 0"/>
          <polygon class="cls-1" points="20.71 54.19 21.71 54.19 21.71 46.65 29.26 46.65 29.26 45.65 20.71 45.65 20.71 54.19"/>
        </g>
        <g>
          <polygon class="cls-1" points="126.27 50.58 91.79 50.58 91.79 0 75.69 0 75.69 66.67 134.32 66.67 142.37 58.63 142.37 0 126.27 0 126.27 50.58"/>
          <polygon class="cls-1" points="122.01 37.77 121.01 37.77 121.01 45.31 113.46 45.31 113.46 46.31 122.01 46.31 122.01 37.77"/>
        </g>
      </g>
    </g>
  </g>
</svg>