<?xml version="1.0" encoding="UTF-8"?>
<svg version="1.1" xmlns="http://www.w3.org/2000/svg" width="1586" height="973">
<path d="M0 0 C520.08 0 1040.16 0 1576 0 C1576 317.79 1576 635.58 1576 963 C1055.92 963 535.84 963 0 963 C0 645.21 0 327.42 0 0 Z " fill="#FEFEFE" transform="translate(10,10)"/>
<path d="M0 0 C8.56297657 -0.06980773 17.12583231 -0.1229663 25.68902397 -0.15543652 C29.666158 -0.17102819 33.64309596 -0.19214604 37.62011719 -0.22631836 C41.4651085 -0.25914583 45.30991236 -0.27690176 49.15503311 -0.28463173 C50.61490958 -0.29013361 52.07477692 -0.30087635 53.5345726 -0.31719017 C72.83704625 -0.52413467 72.83704625 -0.52413467 80.5 5.4375 C84.38277409 9.41734345 85.30462122 12.2041524 85.375 17.75 C85.16343491 30.31696627 81.59679942 46.31114216 73.4375 56.0625 C72.633125 56.701875 71.82875 57.34125 71 58 C70.401875 58.53625 69.80375 59.0725 69.1875 59.625 C65.970932 61.64684274 62.58383946 62.74565619 59 64 C60.093125 64.556875 61.18625 65.11375 62.3125 65.6875 C65.80586533 67.46713894 67.29135419 69.47527856 69 73 C71.28687247 84.45209003 67.13947024 100.72105953 62 111 C55.07 111 48.14 111 41 111 C42.9375 102.3125 42.9375 102.3125 43.54272461 99.6027832 C45.39388837 91.86920774 45.39388837 91.86920774 46.375 84 C46.44847656 83.0409375 46.44847656 83.0409375 46.5234375 82.0625 C45.64574431 78.60412682 43.74943001 77.2008343 41 75 C38.06596144 74.27001136 35.2120129 74.27825768 32.19921875 74.29296875 C30.9446563 74.27028679 30.9446563 74.27028679 29.66474915 74.24714661 C27.00539087 74.20431562 24.34716862 74.19543644 21.6875 74.1875 C19.87952719 74.16435199 18.07158132 74.13898601 16.26367188 74.11132812 C11.8423477 74.04852162 7.42173081 74.01615042 3 74 C2.89115479 74.64831787 2.78230957 75.29663574 2.67016602 75.96459961 C1.40167548 83.25146648 -0.24301441 90.39523194 -2.0625 97.5625 C-2.33126953 98.64080078 -2.60003906 99.71910156 -2.87695312 100.83007812 C-4.86615044 108.73230088 -4.86615044 108.73230088 -6 111 C-12.93 111 -19.86 111 -27 111 C-24.16658564 97.99368346 -21.08293132 85.07543502 -17.83203125 72.16796875 C-17.34665439 70.23275263 -16.86152648 68.29747406 -16.37663269 66.36213684 C-15.11487578 61.32825417 -13.85047852 56.29503907 -12.58526611 51.26202393 C-10.54983527 43.16386756 -8.51775911 35.06487031 -6.4871273 26.96550941 C-5.78086616 24.150645 -5.07299301 21.33618956 -4.36494446 18.52177429 C-3.93310244 16.80123219 -3.50131151 15.08067727 -3.06958008 13.36010742 C-2.87374329 12.58349762 -2.67790649 11.80688782 -2.47613525 11.00674438 C-1.56058521 7.35222334 -0.69415612 3.70345193 0 0 Z " fill="#030303" transform="translate(629,435)"/>
<path d="M0 0 C12.21 0 24.42 0 37 0 C40.75 15.0625 40.75 15.0625 41.90527344 19.71118164 C44.72697705 31.02037912 47.60888097 42.31172899 50.87597656 53.50195312 C53.52764709 62.64214616 55.52949205 71.87319011 57.38842773 81.20483398 C57.58509033 82.18911377 57.78175293 83.17339355 57.984375 84.1875 C58.15678711 85.06792969 58.32919922 85.94835937 58.50683594 86.85546875 C58.91950634 89.03516615 58.91950634 89.03516615 60 91 C60.3880481 89.24212158 60.3880481 89.24212158 60.78393555 87.44873047 C64.65991929 70.06718111 68.94427453 52.78898689 73.22387695 35.50360107 C74.21781297 31.48714727 75.2093781 27.47010822 76.20117188 23.453125 C78.13185859 15.63485752 80.06529333 7.81727367 82 0 C88.93 0 95.86 0 103 0 C101.87498951 9.00008396 101.87498951 9.00008396 100.93737793 12.73823547 C100.72709457 13.58631271 100.51681122 14.43438995 100.30015564 15.3081665 C99.95725243 16.66056427 99.95725243 16.66056427 99.60742188 18.0402832 C99.36504288 19.01198959 99.12266388 19.98369598 98.87294006 20.98484802 C98.07606582 24.17464387 97.27250509 27.36271292 96.46875 30.55078125 C95.91169101 32.77409059 95.35501538 34.99749601 94.79870605 37.22099304 C93.63475895 41.86915712 92.46778208 46.51654554 91.29833984 51.16333008 C89.79787004 57.12552728 88.30251727 63.08899194 86.80910492 69.0529604 C85.38481716 74.74015159 83.95819425 80.4267561 82.53125 86.11328125 C82.25860825 87.20045252 81.98596649 88.28762379 81.70506287 89.40773964 C80.93551511 92.47437989 80.16433044 95.54060337 79.39257812 98.60668945 C79.16397598 99.51840912 78.93537384 100.43012878 78.69984436 101.36947632 C78.489561 102.20345444 78.27927765 103.03743256 78.06262207 103.89668274 C77.88048409 104.6209612 77.6983461 105.34523966 77.51068878 106.09146595 C77.06817954 107.74520102 76.54135516 109.37593451 76 111 C64.12 111 52.24 111 40 111 C37.49731106 102.24058872 35.02991944 93.48850191 32.6875 84.6875 C30.90986373 78.00952275 29.11735018 71.34113143 27.16796875 64.7109375 C22.75193174 49.62141784 19.59126908 34.50579049 17 19 C14.95215783 26.97453833 12.99621856 34.96205882 11.1809082 42.99267578 C7.88582537 57.54585984 4.30085521 72.02314349 0.6875 86.5 C0.41502441 87.59489746 0.14254883 88.68979492 -0.13818359 89.81787109 C-0.91882497 92.95218617 -1.70291622 96.0856156 -2.48828125 99.21875 C-2.72658157 100.17591919 -2.9648819 101.13308838 -3.21040344 102.1192627 C-3.4314122 102.99707397 -3.65242096 103.87488525 -3.88012695 104.77929688 C-4.07298782 105.54914917 -4.26584869 106.31900146 -4.46455383 107.11218262 C-5 109 -5 109 -6 111 C-12.93 111 -19.86 111 -27 111 C-24.16658564 97.99368346 -21.08293132 85.07543502 -17.83203125 72.16796875 C-17.34665439 70.23275263 -16.86152648 68.29747406 -16.37663269 66.36213684 C-15.11487578 61.32825417 -13.85047852 56.29503907 -12.58526611 51.26202393 C-10.54983527 43.16386756 -8.51775911 35.06487031 -6.4871273 26.96550941 C-5.78086616 24.150645 -5.07299301 21.33618956 -4.36494446 18.52177429 C-3.93310244 16.80123219 -3.50131151 15.08067727 -3.06958008 13.36010742 C-2.87374329 12.58349762 -2.67790649 11.80688782 -2.47613525 11.00674438 C-1.55910957 7.34633314 -0.74054929 3.70274643 0 0 Z " fill="#020202" transform="translate(881,435)"/>
<path d="M0 0 C1.09441406 -0.01224609 2.18882813 -0.02449219 3.31640625 -0.03710938 C13.40754913 -0.05502265 23.97208642 0.61104321 33.125 5.1875 C36.87114826 9.70020884 37.63083827 12.81459151 37.5 18.625 C37.48710938 19.88183594 37.47421875 21.13867188 37.4609375 22.43359375 C37.125 26.1875 37.125 26.1875 35.125 33.1875 C28.525 33.1875 21.925 33.1875 15.125 33.1875 C14.795 28.5675 14.465 23.9475 14.125 19.1875 C8.91333941 18.14516788 4.22112258 18.00372348 -1.0625 18 C-2.40538086 17.98163086 -2.40538086 17.98163086 -3.77539062 17.96289062 C-10.99587313 17.94725059 -18.69680133 18.02362005 -24.8125 22.1875 C-28.73572487 27.8940089 -31.00508075 35.26575543 -29.875 42.1875 C-25.62538239 45.69117409 -21.22518214 45.83296013 -15.953125 46.21484375 C-14.18749079 46.36903519 -12.42186609 46.52333552 -10.65625 46.67773438 C-7.89423277 46.90373986 -5.13187233 47.12445998 -2.36914062 47.34155273 C0.31250774 47.55678525 2.99198301 47.79137832 5.671875 48.02734375 C6.48468933 48.08478256 7.29750366 48.14222137 8.13494873 48.20140076 C15.11112145 48.82513422 21.45991356 50.70691954 26.6640625 55.55078125 C30.24703166 62.01736997 28.59025328 71.39086026 26.93359375 78.39453125 C23.47411873 90.34392564 19.97413633 101.56605912 8.88671875 108.609375 C-2.97222291 114.11032945 -17.36983467 113.39143543 -30.125 113.5 C-32.02523926 113.52658691 -32.02523926 113.52658691 -33.96386719 113.55371094 C-43.83964991 113.54597332 -55.15735203 113.11359434 -62.875 106.1875 C-67.12170865 100.66677876 -66.47872069 93.82068761 -65.875 87.1875 C-65.10356049 83.70715507 -64.08083417 80.55378706 -62.875 77.1875 C-56.275 77.1875 -49.675 77.1875 -42.875 77.1875 C-43 84.5625 -43 84.5625 -43.05517578 86.88037109 C-43.0698117 88.65037275 -42.97428514 90.42022455 -42.875 92.1875 C-38.35967283 96.70282717 -31.21811726 95.37139171 -25.25 95.375 C-24.20714844 95.38724609 -23.16429687 95.39949219 -22.08984375 95.41210938 C-10.83552248 95.52693893 -10.83552248 95.52693893 -0.5 91.6875 C4.20825806 84.44402606 5.78203004 77.76539217 5.125 69.1875 C0.0954506 66.77434057 -3.89695673 65.74429512 -9.5390625 65.37890625 C-11.00651629 65.27026155 -12.47396401 65.16153492 -13.94140625 65.05273438 C-16.21148718 64.89942958 -18.48181281 64.75116109 -20.75244141 64.60620117 C-44.06415348 63.07126315 -44.06415348 63.07126315 -50.66259766 57.74438477 C-54.79471754 52.43819699 -53.40130886 42.61219676 -52.875 36.1875 C-50.81358765 25.25612482 -46.09595308 13.69801992 -37.203125 6.62109375 C-25.9875422 -0.28514599 -12.72061223 0.00743895 0 0 Z " fill="#030303" transform="translate(1183.875,433.8125)"/>
<path d="M0 0 C6.93 0 13.86 0 21 0 C20.33718851 5.30249194 19.65504026 9.83587369 18.32592773 14.91235352 C18.15997101 15.55267014 17.99401428 16.19298676 17.82302856 16.85270691 C17.46599366 18.22921833 17.10690945 19.60519959 16.74593925 20.98068428 C16.17222703 23.17232836 15.60708071 25.36601834 15.04444885 27.56053162 C13.44557066 33.79552219 11.84128561 40.02898324 10.20825195 46.25512695 C9.20583616 50.07948072 8.2215455 53.90813386 7.24815559 57.73997307 C6.87797457 59.18344433 6.5013945 60.62529294 6.11776543 62.06524849 C3.49835794 71.91042773 2.51607214 80.84812061 3 91 C9.38196932 92.63591009 15.28764374 93.32375092 21.875 93.25 C22.74906494 93.24323242 23.62312988 93.23646484 24.52368164 93.22949219 C31.98111813 93.1103616 39.18433554 92.9484244 45.9375 89.5 C51.12061149 83.21744062 52.91607576 74.31531795 54.9375 66.5625 C55.214729 65.51787598 55.49195801 64.47325195 55.77758789 63.39697266 C61.33407258 42.30395139 66.63975638 21.14351903 72 0 C78.93 0 85.86 0 93 0 C91.53451055 8.60494787 89.61951717 17.04279684 87.515625 25.51171875 C87.17410945 26.89255697 86.83261826 28.27340121 86.4911499 29.6542511 C85.77765181 32.53505293 85.06106902 35.41506863 84.34277344 38.29467773 C83.61540606 41.21282569 82.89419216 44.13238213 82.17871094 47.0534668 C70.04260311 96.58234979 70.04260311 96.58234979 56 106 C44.22319858 111.81592809 31.26609376 112.33056934 18.375 112.25 C16.50714844 112.26160156 16.50714844 112.26160156 14.6015625 112.2734375 C7.4806817 112.25841454 0.90906963 111.72911475 -6 110 C-7.258125 109.71125 -8.51625 109.4225 -9.8125 109.125 C-14.04309943 107.63184726 -17.02788801 105.92296852 -19.09423828 101.83544922 C-24.71290622 84.24644397 -16.33817638 63.38155144 -11.77246094 46.30706787 C-10.69045758 42.24272137 -9.63301276 38.17200523 -8.57421875 34.1015625 C-7.38118914 29.51801149 -6.18616525 24.93512535 -4.97097778 20.35739136 C-4.69442856 19.31313744 -4.69442856 19.31313744 -4.41229248 18.24778748 C-3.91748432 16.38146075 -3.42075162 14.51564457 -2.92385864 12.64987183 C-1.86189571 8.45439385 -0.93883033 4.22473648 0 0 Z " fill="#020202" transform="translate(512,435)"/>
<path d="M0 0 C25.08 0 50.16 0 76 0 C75 8 75 8 72 18 C44.775 18.495 44.775 18.495 17 19 C14.69 27.91 12.38 36.82 10 46 C27.16 46 44.32 46 62 46 C60 57 60 57 58 62 C40.84 62.33 23.68 62.66 6 63 C2.09882249 77.9165602 2.09882249 77.9165602 -1 93 C16.82 93 34.64 93 53 93 C52 102 52 102 49 111 C23.92 111 -1.16 111 -27 111 C-25.68217028 103.75193652 -24.27932611 96.69098074 -22.47802734 89.5715332 C-22.23389603 88.59456985 -21.98976471 87.61760651 -21.73823547 86.61103821 C-20.94081787 83.42343629 -20.13842622 80.2371099 -19.3359375 77.05078125 C-18.7779804 74.82455567 -18.22033759 72.5982513 -17.66299438 70.37187195 C-16.20299996 64.54328879 -14.7387672 58.71577863 -13.27362061 52.88848877 C-11.51240067 45.87985502 -9.75649834 38.86988737 -7.99969482 31.86014557 C-5.33718121 21.23907491 -2.66795863 10.61971088 0 0 Z " fill="#030303" transform="translate(786,435)"/>
<path d="M0 0 C24.42 0 48.84 0 74 0 C72.68 5.94 71.36 11.88 70 18 C52.51 18 35.02 18 17 18 C16.34 21.63 15.68 25.26 15 29 C13.35 35.27 11.7 41.54 10 48 C26.17 48 42.34 48 59 48 C57 59 57 59 55 65 C38.5 65 22 65 5 65 C4.67 67.64 4.34 70.28 4 73 C3.72464753 74.40052064 3.42385824 75.79681451 3.07617188 77.18115234 C2.89928833 77.89483978 2.72240479 78.60852722 2.54016113 79.34384155 C2.35159546 80.08373322 2.16302979 80.82362488 1.96875 81.5859375 C1.77277222 82.36893219 1.57679443 83.15192688 1.37487793 83.95864868 C0.96358241 85.59783287 0.55002083 87.23645001 0.13427734 88.87451172 C-0.50320869 91.38764951 -1.13300479 93.90262365 -1.76171875 96.41796875 C-2.16361624 98.01573732 -2.56594449 99.61339761 -2.96875 101.2109375 C-3.15731567 101.96297455 -3.34588135 102.7150116 -3.54016113 103.48983765 C-4.8838684 108.7677368 -4.8838684 108.7677368 -6 111 C-12.93 111 -19.86 111 -27 111 C-24.16658564 97.99368346 -21.08293132 85.07543502 -17.83203125 72.16796875 C-17.34665439 70.23275263 -16.86152648 68.29747406 -16.37663269 66.36213684 C-15.11487578 61.32825417 -13.85047852 56.29503907 -12.58526611 51.26202393 C-10.54983527 43.16386756 -8.51775911 35.06487031 -6.4871273 26.96550941 C-5.78086616 24.150645 -5.07299301 21.33618956 -4.36494446 18.52177429 C-3.93310244 16.80123219 -3.50131151 15.08067727 -3.06958008 13.36010742 C-2.87374329 12.58349762 -2.67790649 11.80688782 -2.47613525 11.00674438 C-1.55910957 7.34633314 -0.74054929 3.70274643 0 0 Z " fill="#020202" transform="translate(423,435)"/>
<path d="M0 0 C28.71 0 57.42 0 87 0 C85.84222435 6.36776605 84.56973 12.72107998 83 19 C71.78 19 60.56 19 49 19 C48.34 22.63 47.68 26.26 47 30 C46.34514827 32.8706174 45.67240087 35.72309257 44.95288086 38.57666016 C44.75912369 39.3569458 44.56536652 40.13723145 44.36573792 40.94116211 C43.73561175 43.47468448 43.10043566 46.00690631 42.46484375 48.5390625 C42.02148697 50.31451361 41.57833965 52.09001703 41.13539124 53.86557007 C40.21226115 57.5624873 39.28661085 61.2587616 38.35913086 64.95458984 C37.16837306 69.70040971 35.98403734 74.44780542 34.80153561 79.19568825 C33.89047599 82.85073283 32.97607591 86.50493516 32.06064034 90.15888596 C31.62221113 91.91059823 31.18483476 93.66257436 30.74851799 95.414814 C30.14165541 97.84983921 29.53031507 100.28369562 28.91772461 102.71728516 C28.7374472 103.44446747 28.5571698 104.17164978 28.37142944 104.92086792 C27.11427163 109.88572837 27.11427163 109.88572837 26 111 C24.43827255 111.08685603 22.87270656 111.10702219 21.30859375 111.09765625 C20.36435547 111.09443359 19.42011719 111.09121094 18.44726562 111.08789062 C17.45404297 111.07951172 16.46082031 111.07113281 15.4375 111.0625 C14.44041016 111.05798828 13.44332031 111.05347656 12.41601562 111.04882812 C9.94394862 111.03700005 7.47201335 111.01967958 5 111 C6.57994361 100.99354531 9.09440259 91.23785433 11.5703125 81.42578125 C12.01616906 79.64796084 12.4617103 77.87006132 12.9069519 76.09208679 C14.0710224 71.44717584 15.23933099 66.80334137 16.40856934 62.159729 C17.60440193 57.40726737 18.79616262 52.65378497 19.98828125 47.90039062 C22.32156974 38.59926405 24.65971932 29.29936971 27 20 C16.77 19.67 6.54 19.34 -4 19 C-2.84222435 12.63223395 -1.56973 6.27892002 0 0 Z " fill="#040404" transform="translate(1000,435)"/>
<path d="M0 0 C6.93 0 13.86 0 21 0 C19.87498306 10.12515245 19.87498306 10.12515245 18.93737793 13.86521912 C18.72709457 14.71611618 18.51681122 15.56701324 18.30015564 16.44369507 C18.0715535 17.34326935 17.84295135 18.24284363 17.60742188 19.16967773 C17.36504288 20.14313644 17.12266388 21.11659515 16.87294006 22.11955261 C16.07723931 25.30902196 15.27316188 28.49631131 14.46875 31.68359375 C13.91162208 33.90785225 13.35494759 36.13222438 12.79870605 38.35670471 C11.63552394 43.003284 10.46846996 47.64886679 9.29833984 52.29370117 C7.79623315 58.25668381 6.30139182 64.22145712 4.80910492 70.18690395 C3.66157495 74.77260458 2.51148972 79.35766097 1.36048889 83.94249153 C0.80816883 86.14287771 0.25635918 88.34339207 -0.29493713 90.54403496 C-1.06334627 93.60866608 -1.83489094 96.67248967 -2.60742188 99.73608398 C-2.83602402 100.64982788 -3.06462616 101.56357178 -3.30015564 102.50500488 C-3.510439 103.33616318 -3.72072235 104.16732147 -3.93737793 105.02366638 C-4.11951591 105.74756782 -4.3016539 106.47146925 -4.48931122 107.21730709 C-5 109 -5 109 -6 111 C-12.93 111 -19.86 111 -27 111 C-24.16658564 97.99368346 -21.08293132 85.07543502 -17.83203125 72.16796875 C-17.34665439 70.23275263 -16.86152648 68.29747406 -16.37663269 66.36213684 C-15.11487578 61.32825417 -13.85047852 56.29503907 -12.58526611 51.26202393 C-10.54983527 43.16386756 -8.51775911 35.06487031 -6.4871273 26.96550941 C-5.78086616 24.150645 -5.07299301 21.33618956 -4.36494446 18.52177429 C-3.93310244 16.80123219 -3.50131151 15.08067727 -3.06958008 13.36010742 C-2.87374329 12.58349762 -2.67790649 11.80688782 -2.47613525 11.00674438 C-1.55910957 7.34633314 -0.74054929 3.70274643 0 0 Z " fill="#020202" transform="translate(1098,435)"/>
<path d="M0 0 C6.93 0 13.86 0 21 0 C19.87498306 10.12515245 19.87498306 10.12515245 18.93737793 13.86521912 C18.72709457 14.71611618 18.51681122 15.56701324 18.30015564 16.44369507 C18.0715535 17.34326935 17.84295135 18.24284363 17.60742188 19.16967773 C17.36504288 20.14313644 17.12266388 21.11659515 16.87294006 22.11955261 C16.07723931 25.30902196 15.27316188 28.49631131 14.46875 31.68359375 C13.91162208 33.90785225 13.35494759 36.13222438 12.79870605 38.35670471 C11.63552394 43.003284 10.46846996 47.64886679 9.29833984 52.29370117 C7.79623315 58.25668381 6.30139182 64.22145712 4.80910492 70.18690395 C3.66157495 74.77260458 2.51148972 79.35766097 1.36048889 83.94249153 C0.80816883 86.14287771 0.25635918 88.34339207 -0.29493713 90.54403496 C-1.06334627 93.60866608 -1.83489094 96.67248967 -2.60742188 99.73608398 C-2.83602402 100.64982788 -3.06462616 101.56357178 -3.30015564 102.50500488 C-3.510439 103.33616318 -3.72072235 104.16732147 -3.93737793 105.02366638 C-4.11951591 105.74756782 -4.3016539 106.47146925 -4.48931122 107.21730709 C-5 109 -5 109 -6 111 C-12.93 111 -19.86 111 -27 111 C-24.16658564 97.99368346 -21.08293132 85.07543502 -17.83203125 72.16796875 C-17.34665439 70.23275263 -16.86152648 68.29747406 -16.37663269 66.36213684 C-15.11487578 61.32825417 -13.85047852 56.29503907 -12.58526611 51.26202393 C-10.54983527 43.16386756 -8.51775911 35.06487031 -6.4871273 26.96550941 C-5.78086616 24.150645 -5.07299301 21.33618956 -4.36494446 18.52177429 C-3.93310244 16.80123219 -3.50131151 15.08067727 -3.06958008 13.36010742 C-2.87374329 12.58349762 -2.67790649 11.80688782 -2.47613525 11.00674438 C-1.55910957 7.34633314 -0.74054929 3.70274643 0 0 Z " fill="#020202" transform="translate(742,435)"/>
<path d="M0 0 C5.76575914 -0.07418336 11.53124017 -0.12861797 17.29736328 -0.16479492 C19.25867553 -0.17987695 21.21995408 -0.20034547 23.18115234 -0.22631836 C26.00106118 -0.26272731 28.82052392 -0.27973216 31.640625 -0.29296875 C32.51680481 -0.30845261 33.39298462 -0.32393646 34.29571533 -0.33988953 C40.36123953 -0.34156451 40.36123953 -0.34156451 43.55175781 1.36450195 C46.22941475 4.38837651 45.52124998 7.7496435 45.390625 11.59375 C44.48970563 19.44976687 42.37257846 27.99535349 37 34 C30.90161207 37.68444271 25.72954487 38.14473965 18.734375 38.09765625 C17.94097717 38.0962413 17.14757935 38.09482635 16.33013916 38.09336853 C13.80338728 38.08778415 11.27672496 38.07523454 8.75 38.0625 C7.03385545 38.05748298 5.31770951 38.05292043 3.6015625 38.04882812 C-0.59899269 38.03781984 -4.79948117 38.02056596 -9 38 C-7.6126515 29.46507573 -5.59074386 21.16657492 -3.375 12.8125 C-3.05015625 11.57435547 -2.7253125 10.33621094 -2.390625 9.06054688 C-1.5974221 6.03937701 -0.80048292 3.01924752 0 0 Z " fill="#FCFCFC" transform="translate(646,453)"/>
</svg>
